<svg width="14" height="14" viewBox="0 0 14 14" fill="none" xmlns="http://www.w3.org/2000/svg">
<path fill-rule="evenodd" clip-rule="evenodd" d="M2.79694 12.6211L9.98153 12.6211C10.7255 12.6211 11.3286 12.0308 11.3286 11.3027L11.3286 9.10537L12.2267 9.10537L12.2267 11.3027C12.2267 12.5162 11.2215 13.5 9.98153 13.5L2.79694 13.5C1.55696 13.5 0.551758 12.5162 0.551758 11.3027L0.551757 4.27148C0.551757 3.05796 1.55696 2.07421 2.79694 2.07421L5.04212 2.07421L5.04212 2.95312L2.79694 2.95312C2.05295 2.95312 1.44983 3.54337 1.44983 4.27148L1.44983 11.3027C1.44983 12.0308 2.05295 12.6211 2.79694 12.6211Z" fill="#002732"/>
<path fill-rule="evenodd" clip-rule="evenodd" d="M10.849 4.33335L9.41016 2.92526L4.61416 7.6189L6.05296 9.02699L10.849 4.33335ZM9.41016 1.83008L3.4951 7.6189L6.05296 10.1222L11.968 4.33335L9.41016 1.83008Z" fill="#002732"/>
<path fill-rule="evenodd" clip-rule="evenodd" d="M12.1284 2.92505L10.8495 1.67341C10.8053 1.63021 10.7337 1.63021 10.6896 1.67341L9.9702 2.37745L11.409 3.78555L12.1284 3.0815C12.1725 3.0383 12.1725 2.96825 12.1284 2.92505ZM11.409 1.12582C11.0558 0.780188 10.4832 0.780188 10.1301 1.12582L8.85113 2.37745L11.409 4.88073L12.6879 3.62909C13.0411 3.28346 13.0411 2.72308 12.6879 2.37745L11.409 1.12582Z" fill="#002732"/>
<path d="M3.064 10.2913L3.49512 7.61914L6.05298 10.1224L3.32258 10.5443C3.17096 10.5678 3.04006 10.4397 3.064 10.2913Z" fill="#002732"/>
<path d="M3.81503 9.8091L4.13477 7.93164L5.73343 9.49619L3.81503 9.8091Z" fill="white"/>
</svg>
