<svg width="15" height="9" viewBox="0 0 15 9" fill="none" xmlns="http://www.w3.org/2000/svg">
<path fill-rule="evenodd" clip-rule="evenodd" d="M0.21967 0.396446C0.512563 0.103553 0.987437 0.103553 1.28033 0.396446L7.64429 6.76041C7.93718 7.0533 7.93718 7.52817 7.64429 7.82107C7.3514 8.11396 6.87652 8.11396 6.58363 7.82107L0.21967 1.45711C-0.0732233 1.16421 -0.0732233 0.689339 0.21967 0.396446Z" fill="black"/>
<path fill-rule="evenodd" clip-rule="evenodd" d="M6.76041 7.64429C6.46751 7.3514 6.46751 6.87652 6.76041 6.58363L13.1244 0.21967C13.4173 -0.0732231 13.8921 -0.0732234 14.185 0.21967C14.4779 0.512563 14.4779 0.987437 14.185 1.28033L7.82107 7.64429C7.52817 7.93718 7.0533 7.93718 6.76041 7.64429Z" fill="black"/>
</svg>
