<svg width="24" height="24" viewBox="0 0 24 24" fill="none" xmlns="http://www.w3.org/2000/svg">
<path fill-rule="evenodd" clip-rule="evenodd" d="M17.0327 11.062C17.0327 14.9118 13.9118 18.0327 10.062 18.0327C6.21214 18.0327 3.09123 14.9118 3.09123 11.062C3.09123 7.21214 6.21214 4.09123 10.062 4.09123C13.9118 4.09123 17.0327 7.21214 17.0327 11.062ZM16.4696 17.4699C14.8297 19.1097 12.5643 20.124 10.062 20.124C5.05719 20.124 1 16.0668 1 11.062C1 6.05719 5.05719 2 10.062 2C15.0668 2 19.124 6.05719 19.124 11.062C19.124 12.8068 18.6308 14.4365 17.7763 15.8192L22.6938 20.7366C23.1021 21.145 23.1021 21.807 22.6938 22.2154C22.2855 22.6237 21.6234 22.6237 21.2151 22.2154L16.4696 17.4699Z" fill="black"/>
</svg>
