<?xml version="1.0" encoding="UTF-8"?>
<svg xmlns="http://www.w3.org/2000/svg" version="1.1" viewBox="0 0 24 24">
  <defs>
    <style>
      .cls-1 {
        fill: none;
      }
    </style>
  </defs>
  <!-- Generator: Adobe Illustrator 28.7.1, SVG Export Plug-In . SVG Version: 1.2.0 Build 142)  -->
  <g>
    <g id="_레이어_1" data-name="레이어_1">
      <g>
        <path class="cls-1" d="M10.1,4.1c-3.8,0-7,3.1-7,7s3.1,7,7,7,7-3.1,7-7-3.1-7-7-7Z"/>
        <g>
          <path class="cls-1" d="M10.1,4.1c-3.8,0-7,3.1-7,7s3.1,7,7,7,7-3.1,7-7-3.1-7-7-7Z"/>
          <path d="M22.7,20.7l-4.9-4.9c.9-1.4,1.3-3,1.3-4.8,0-5-4.1-9.1-9.1-9.1S1,6.1,1,11.1s4.1,9.1,9.1,9.1,4.8-1,6.4-2.7l4.7,4.7c.4.4,1.1.4,1.5,0,.4-.4.4-1.1,0-1.5ZM10.1,18c-3.8,0-7-3.1-7-7s3.1-7,7-7,7,3.1,7,7-3.1,7-7,7Z"/>
        </g>
      </g>
    </g>
  </g>
</svg>