<svg width="13" height="13" viewBox="0 0 13 13" fill="none" xmlns="http://www.w3.org/2000/svg">
<path fill-rule="evenodd" clip-rule="evenodd" d="M10.3594 11.1641C11.4251 11.1641 12.2891 10.3001 12.2891 9.23438C12.2891 8.16864 11.4251 7.30469 10.3594 7.30469C9.29364 7.30469 8.42969 8.16864 8.42969 9.23438C8.42969 10.3001 9.29364 11.1641 10.3594 11.1641ZM10.3594 11.875C11.8178 11.875 13 10.6928 13 9.23438C13 7.776 11.8178 6.59375 10.3594 6.59375C8.901 6.59375 7.71875 7.776 7.71875 9.23438C7.71875 10.6928 8.901 11.875 10.3594 11.875Z" fill="#002732"/>
<path fill-rule="evenodd" clip-rule="evenodd" d="M11.293 8.25001C11.4318 8.38883 11.4318 8.6139 11.293 8.75272L9.92848 10.1172C9.78966 10.256 9.56459 10.256 9.42577 10.1172C9.28695 9.97839 9.28695 9.75332 9.42577 9.6145L10.7903 8.25001C10.9291 8.11119 11.1542 8.11119 11.293 8.25001Z" fill="#002732"/>
<path fill-rule="evenodd" clip-rule="evenodd" d="M9.42577 8.25001C9.56459 8.11119 9.78966 8.11119 9.92848 8.25001L11.293 9.6145C11.4318 9.75332 11.4318 9.97839 11.293 10.1172C11.1542 10.256 10.9291 10.256 10.7903 10.1172L9.42577 8.75272C9.28695 8.6139 9.28695 8.38883 9.42577 8.25001Z" fill="#002732"/>
<path fill-rule="evenodd" clip-rule="evenodd" d="M10.8552 6.64038C10.8632 6.5243 10.8672 6.40715 10.8672 6.28906C10.8672 3.48449 8.59363 1.21094 5.78906 1.21094C2.98449 1.21094 0.710938 3.48449 0.710938 6.28906C0.710938 9.09363 2.98449 11.3672 5.78906 11.3672C6.66259 11.3672 7.48461 11.1466 8.20246 10.7582C8.3442 10.9585 8.51314 11.1381 8.7039 11.2919C7.84783 11.7917 6.8519 12.0781 5.78906 12.0781C2.59185 12.0781 0 9.48627 0 6.28906C0 3.09185 2.59185 0.5 5.78906 0.5C8.98627 0.5 11.5781 3.09185 11.5781 6.28906C11.5781 6.48727 11.5682 6.68316 11.5487 6.87624C11.3329 6.76718 11.1 6.68688 10.8552 6.64038ZM9.94066 6.62694C9.97104 6.25367 9.95117 5.87524 9.87931 5.50186C9.68866 4.51128 9.145 3.62354 8.34929 3.00349C7.55358 2.38344 6.5599 2.07322 5.55275 2.13044C4.54561 2.18766 3.59345 2.60843 2.87309 3.31461C2.7329 3.45204 2.73066 3.6771 2.86809 3.81729C3.00553 3.95749 3.23059 3.95972 3.37078 3.82229C3.96819 3.23664 4.75783 2.88769 5.59308 2.84024C6.42832 2.79278 7.25241 3.05005 7.91231 3.56427C8.57221 4.07849 9.02307 4.81471 9.18118 5.63623C9.25978 6.04458 9.26338 6.46021 9.19531 6.86371C9.4267 6.74988 9.67718 6.66892 9.94066 6.62694ZM7.8115 9.93049C7.59001 10.0535 7.35643 10.1568 7.11322 10.2383C6.15679 10.559 5.11647 10.5218 4.18545 10.1334C3.25444 9.74505 2.49599 9.03202 2.05094 8.12673C1.6059 7.22145 1.50451 6.18541 1.7656 5.21102C1.81641 5.02139 2.01133 4.90885 2.20096 4.95966C2.39059 5.01047 2.50312 5.20539 2.45231 5.39502C2.23579 6.20311 2.31987 7.06231 2.68895 7.81309C3.05804 8.56386 3.68704 9.15519 4.45915 9.47726C5.23126 9.79933 6.09402 9.83025 6.88721 9.56429C7.18433 9.46467 7.46412 9.32593 7.72005 9.15338C7.71924 9.18033 7.71882 9.20739 7.71882 9.23454C7.71882 9.47542 7.75108 9.70876 7.8115 9.93049ZM6.2461 4.35938C6.2461 4.16305 6.08695 4.00391 5.89063 4.00391C5.69431 4.00391 5.53516 4.16305 5.53516 4.35938V6.4469L4.03302 7.74683C3.88457 7.8753 3.86837 8.09978 3.99684 8.24823C4.1253 8.39669 4.34979 8.41289 4.49824 8.28442L6.2461 6.77185V4.35938Z" fill="#002732"/>
</svg>
