<svg width="24" height="22" viewBox="0 0 24 22" fill="none" xmlns="http://www.w3.org/2000/svg">
<path fill-rule="evenodd" clip-rule="evenodd" d="M14.4575 1.84285H9.54321C8.52543 1.84285 7.70036 2.66792 7.70036 3.68569V4.29997H16.3003V3.68569C16.3003 2.66792 15.4752 1.84285 14.4575 1.84285ZM9.54321 0C7.50766 0 5.85752 1.65014 5.85752 3.68569V4.30043H3.40049C2.04345 4.30043 0.943359 5.40052 0.943359 6.75755V19.0432C0.943359 20.4002 2.04345 21.5003 3.40049 21.5003H20.6004C21.9574 21.5003 23.0575 20.4002 23.0575 19.0432V6.75756C23.0575 5.40052 21.9574 4.30043 20.6004 4.30043H18.1432V3.68569C18.1432 1.65014 16.493 0 14.4575 0H9.54321ZM20.6004 6.14327H3.40049C3.06123 6.14327 2.7862 6.4183 2.7862 6.75755V19.0432C2.7862 19.3825 3.06123 19.6575 3.40049 19.6575H20.6004C20.9396 19.6575 21.2147 19.3825 21.2147 19.0432V6.75756C21.2147 6.4183 20.9396 6.14327 20.6004 6.14327ZM15.0717 12.8998C15.0717 14.5961 13.6966 15.9712 12.0003 15.9712C10.304 15.9712 8.9289 14.5961 8.9289 12.8998C8.9289 11.2035 10.304 9.82835 12.0003 9.82835C13.6966 9.82835 15.0717 11.2035 15.0717 12.8998ZM16.9146 12.8998C16.9146 15.6138 14.7144 17.814 12.0003 17.814C9.28624 17.814 7.08606 15.6138 7.08606 12.8998C7.08606 10.1857 9.28624 7.98551 12.0003 7.98551C14.7144 7.98551 16.9146 10.1857 16.9146 12.8998Z" fill="#110000"/>
</svg>
