<svg width="24" height="24" viewBox="0 0 24 24" fill="none" xmlns="http://www.w3.org/2000/svg">
<path d="M5.8153 1.85938C5.8153 1.38476 6.20006 1 6.67468 1C7.1493 1 7.53405 1.38476 7.53405 1.85938V7.01563C7.53405 7.49025 7.1493 7.875 6.67468 7.875C6.20006 7.875 5.8153 7.49025 5.8153 7.01563V1.85938Z" fill="#222222"/>
<path d="M16.4688 1.85938C16.4688 1.38476 16.8535 1 17.3281 1C17.8027 1 18.1875 1.38476 18.1875 1.85938V7.01563C18.1875 7.49025 17.8027 7.875 17.3281 7.875C16.8535 7.875 16.4688 7.49025 16.4688 7.01563V1.85938Z" fill="#222222"/>
<path d="M2.71875 9.9382H21.2812V11.657H2.71875V9.9382Z" fill="#222222"/>
<path fill-rule="evenodd" clip-rule="evenodd" d="M19.5625 5.46875H4.4375C3.48826 5.46875 2.71875 6.23826 2.71875 7.1875V19.5625C2.71875 20.5117 3.48826 21.2813 4.4375 21.2813H19.5625C20.5117 21.2813 21.2812 20.5117 21.2812 19.5625V7.1875C21.2812 6.23826 20.5117 5.46875 19.5625 5.46875ZM4.4375 3.75C2.53902 3.75 1 5.28902 1 7.1875V19.5625C1 21.461 2.53902 23 4.4375 23H19.5625C21.461 23 23 21.461 23 19.5625V7.1875C23 5.28902 21.461 3.75 19.5625 3.75H4.4375Z" fill="#222222"/>
</svg>
